<svg width="28" height="28" viewBox="0 0 28 28" fill="none" xmlns="http://www.w3.org/2000/svg">
  <path d="M14 4C11.8 4 10 5.8 10 8C10 9.2 10.6 10.3 11.5 11C10.2 11.5 9.2 12.5 9.2 14C9.2 15 9.8 15.8 10.8 16.2C10 17 10.3 18.2 11.5 18.8C12.3 18.2 13 17.3 13 16.2C13 17.3 13.7 18.2 14.5 18.8C15.7 18.2 16 17 15.2 16.2C16.2 15.8 16.8 15 16.8 14C16.8 12.5 15.8 11.5 14.5 11C15.4 10.3 16 9.2 16 8C16 5.8 14.2 4 14 4Z" stroke="currentColor" stroke-width="1.5" stroke-linecap="round" stroke-linejoin="round"/>
  <circle cx="14" cy="23" r="1.5" fill="currentColor"/>
</svg>