<svg width="28" height="28" viewBox="0 0 28 28" fill="none" xmlns="http://www.w3.org/2000/svg">
  <path d="M14 3C11.5 3 9.5 5 9.5 7.5C9.5 9 10.5 10.5 12 11.5C10 12 8.5 13.5 8.5 15.5C8.5 17 9.5 18 11 18.5C10 20 10.5 22 12 23C13.5 22 14 21 14 20C14 21 14.5 22 16 23C17.5 22 18 20 17 18.5C18.5 18 19.5 17 19.5 15.5C19.5 13.5 18 12 16 11.5C17.5 10.5 18.5 9 18.5 7.5C18.5 5 16.5 3 14 3Z" fill="#8B7355"/>
  <path d="M14 5C12.5 5 11 6.5 11 8C11 9 11.5 10 12.5 10.5C11.5 11 10.5 12 10.5 13.5C10.5 14.5 11 15.5 12 16C11 16.5 10.5 17.5 10.5 18.5C10.5 19.5 11 20.5 12 21C13 20 13.5 19 13.5 18C13.5 19 14 20 15.5 21C16.5 20.5 17 19.5 17 18.5C17 17.5 16.5 16.5 15.5 16C16.5 15.5 17 14.5 17 13.5C17 12 16 11 14.5 10.5C15.5 10 16 9 16 8C16 6.5 15.5 5 14 5Z" fill="currentColor"/>
</svg>